<svg width="194" height="33" viewBox="0 0 194 33" fill="none" xmlns="http://www.w3.org/2000/svg">
<path d="M20.1955 8.75338C20.241 8.07641 20.0327 7.45803 19.7333 6.87218C19.5185 6.44257 19.2126 6.07153 18.8415 5.7656C18.5812 5.55079 18.2817 5.38154 17.9758 5.23183C17.5527 5.03004 17.1035 4.96495 16.6414 4.92589C16.1467 4.88032 15.6585 4.94542 15.1963 5.10164C14.8318 5.21881 14.4868 5.38805 14.1808 5.63541C14.0051 5.77861 13.8293 5.92833 13.6666 6.08455C13.5755 6.17568 13.4843 6.27332 13.4062 6.37747C13.1914 6.6769 12.9961 6.99586 12.8334 7.32784C12.6316 7.73793 12.5535 8.17405 12.4298 8.60367C12.4038 8.6948 12.3647 8.77942 12.3257 8.85754C12.1825 9.14395 11.9156 9.06583 11.7529 8.90961C11.7138 8.87055 11.6747 8.82499 11.6422 8.78593C11.5055 8.60367 11.3232 8.59065 11.1215 8.64924C10.9652 8.6948 10.8155 8.74688 10.6658 8.80546C10.3468 8.93565 10.1906 8.83801 10.0279 8.61018C9.96279 8.51254 9.89769 8.4149 9.81958 8.32377C9.67638 8.16103 9.44855 8.07641 9.21421 8.20009C9.07752 8.27169 8.90827 8.29773 8.75205 8.32377C8.5112 8.36282 8.25734 8.38235 8.01649 8.42141C7.83423 8.44745 7.65848 8.42141 7.49574 8.33679C7.20282 8.18707 7.19632 7.83557 7.4632 7.6468C7.80819 7.40595 8.18574 7.23671 8.55026 7.04143C8.97337 6.82011 9.37044 6.57275 9.65034 6.17568C9.73496 6.05852 9.79354 5.92833 9.85864 5.80465C9.94977 5.63541 10.0279 5.45966 10.1255 5.29692C10.2817 5.04957 10.4445 4.80872 10.6137 4.57439C10.8155 4.29448 11.0629 4.04713 11.3297 3.8193C11.6227 3.56544 11.9546 3.35063 12.2736 3.12931C12.7097 2.82988 13.1979 2.62809 13.6796 2.41328C13.9465 2.29611 14.2199 2.19847 14.4933 2.09432C14.8123 1.97065 15.0271 1.74282 15.1703 1.43688C15.2354 1.30018 15.333 1.17 15.4046 1.03981C15.5348 0.798964 15.704 0.584156 15.8668 0.369347C15.9709 0.232651 16.0946 0.115483 16.2443 0.0503896C16.4786 -0.0472506 16.6544 -0.0147039 16.713 0.252179C16.7781 0.551609 16.8562 0.84453 16.8887 1.14396C16.9278 1.46292 17.1166 1.64518 17.3639 1.78838C17.455 1.84046 17.5592 1.87301 17.6568 1.89904C17.9367 1.97716 18.2166 2.04876 18.49 2.15942C18.8611 2.31564 19.2321 2.45885 19.5901 2.65413C20.0848 2.92101 20.547 3.22695 20.9896 3.57195C21.3737 3.87138 21.7187 4.20986 22.0376 4.57439C22.4542 5.05608 22.8057 5.58984 23.0661 6.18219C23.3265 6.76803 23.4957 7.3734 23.5673 8.00481C23.6064 8.38235 23.6259 8.75989 23.6064 9.13744C23.5803 9.61913 23.4957 10.0943 23.372 10.563C23.2549 10.9926 23.0791 11.3962 22.8969 11.7933C22.7406 12.1252 22.5258 12.4377 22.3175 12.7436C22.1027 13.0496 21.8749 13.3425 21.634 13.6224C21.4453 13.8437 21.2305 14.039 21.0222 14.2408C20.8204 14.436 20.6186 14.6313 20.4038 14.8006C20.1109 15.0349 19.7919 15.2432 19.499 15.4775C19.3493 15.5947 19.2061 15.7249 19.0824 15.8746C18.9066 16.0829 18.9066 16.3303 19.0173 16.5711C19.2061 17.0007 19.4404 17.4043 19.7073 17.7818C19.9026 18.0552 20.1304 18.3156 20.3712 18.5565C20.6772 18.8689 21.0222 19.1293 21.3997 19.3506C21.8814 19.637 22.4021 19.7867 22.9489 19.8974C23.5218 20.008 24.0685 19.9234 24.6153 19.7737C25.0515 19.6565 25.4355 19.4417 25.7805 19.1683C26.2752 18.7843 26.6788 18.3156 26.9652 17.7558C27.1149 17.4629 27.2386 17.1635 27.3297 16.8445C27.4404 16.4605 27.4794 16.0699 27.4794 15.6663C27.4794 15.2758 27.4143 14.9047 27.3232 14.5272C27.2126 14.0845 26.9977 13.694 26.7439 13.3295C26.5616 13.0691 26.3338 12.8347 26.0929 12.6199C25.8716 12.4181 25.6113 12.2749 25.3574 12.1187C25.2012 12.0211 25.0189 11.9625 24.8432 11.9039C24.6934 11.8518 24.5372 11.8063 24.3745 11.7737C24.2117 11.7412 24.1206 11.6435 24.0881 11.4938C24.0555 11.3506 24.1141 11.24 24.2248 11.1488C24.4135 11.0056 24.42 10.8168 24.355 10.6151C24.3419 10.5825 24.3224 10.55 24.3159 10.5109C24.2899 10.4198 24.2638 10.3286 24.2508 10.2375C24.2248 10.0227 24.2508 9.82743 24.4266 9.65818C24.5177 9.56705 24.5763 9.43036 24.6349 9.30668C24.7065 9.15046 24.7195 8.98121 24.6674 8.81848C24.6609 8.78593 24.6479 8.75989 24.6414 8.72735C24.5828 8.51905 24.5047 8.32377 24.4656 8.10245C24.42 7.80953 24.3484 7.52312 24.3615 7.22369C24.3615 7.17161 24.3419 7.11303 24.3419 7.06096C24.3354 6.97633 24.3354 6.89822 24.42 6.84615C24.4982 6.80058 24.5893 6.80709 24.6739 6.89171C24.7911 7.00237 24.9148 7.11303 25.0059 7.24322C25.2272 7.54916 25.429 7.86811 25.6438 8.18707C25.7024 8.27169 25.774 8.35631 25.8391 8.43443C25.8586 8.46046 25.8846 8.47348 25.9042 8.49952C26.1255 8.85103 26.477 9.0398 26.8025 9.26111C27.1605 9.50847 27.512 9.76233 27.8635 10.0162C28.2671 10.3091 28.6446 10.6411 28.9896 11.0056C29.4257 11.4678 29.8033 11.969 30.0897 12.5418C30.3175 12.9975 30.5258 13.4596 30.6951 13.9413C30.7471 14.0976 30.8252 14.2473 30.8903 14.4035C31.014 14.6834 31.2288 14.8526 31.4957 14.9828C31.7366 15.0935 31.9709 15.2172 32.2117 15.3408C32.2768 15.3734 32.3354 15.4255 32.3875 15.4775C32.407 15.4971 32.4331 15.5231 32.4396 15.5491C32.5242 15.8095 32.407 16.0243 32.1466 16.1024C31.9123 16.1675 31.6845 16.2456 31.4436 16.2912C31.1898 16.3433 31.0335 16.506 30.9424 16.7208C30.8057 17.0528 30.7016 17.3978 30.5844 17.7363C30.5063 17.9576 30.4086 18.1724 30.3305 18.3937C30.2003 18.7713 29.9986 19.1098 29.8033 19.4548C29.5885 19.8323 29.3281 20.1838 29.0482 20.5158C28.4298 21.2448 27.6877 21.8176 26.8415 22.2538C26.6918 22.3319 26.5356 22.3905 26.3794 22.449C26.1515 22.5337 25.9302 22.6248 25.6959 22.6899C25.2402 22.8136 24.7716 22.8787 24.3029 22.9177C24.0946 22.9307 23.8798 22.9438 23.6715 22.9438C23.1963 22.9438 22.7341 22.8852 22.2655 22.8006C21.6536 22.6964 21.0808 22.4816 20.5275 22.2082C20.215 22.052 19.8961 21.8827 19.6031 21.694C19.3558 21.5312 19.1345 21.3294 18.9066 21.1407C18.6853 20.9519 18.4575 20.7696 18.2622 20.5613C18.0083 20.2945 17.7805 20.008 17.5527 19.7216C17.416 19.5524 17.3053 19.3636 17.1686 19.2009C16.9929 18.9861 16.8041 18.7908 16.5177 18.7322C16.3354 18.6997 16.1727 18.7322 16.023 18.8233C15.9253 18.8819 15.8342 18.9405 15.7431 19.0056C15.2679 19.3441 14.7927 19.6826 14.3761 20.0927C13.9335 20.5223 13.5559 21.0105 13.3086 21.5833C13.0612 22.1561 12.918 22.755 12.9115 23.3864C12.905 23.7639 12.918 24.1285 13.0222 24.493C13.1198 24.8315 13.276 25.1504 13.4453 25.4629C13.5885 25.7298 13.7903 25.9511 13.9921 26.1659C14.3566 26.5564 14.7992 26.8494 15.3005 27.0316C15.9709 27.279 16.6739 27.3766 17.39 27.2334C17.7935 27.1553 18.1711 27.0056 18.5226 26.7843C18.9131 26.5369 19.2516 26.2375 19.5576 25.8925C19.7919 25.6256 19.9937 25.3327 20.1694 25.0268C20.3908 24.6427 20.5795 24.2326 20.6902 23.7965C20.7162 23.6858 20.7488 23.5817 20.7878 23.4775C20.8725 23.2367 21.1393 23.1846 21.3021 23.3799C21.4127 23.5101 21.5169 23.6533 21.6145 23.7965C21.7707 24.0178 21.9465 24.0699 22.1938 23.9397C22.324 23.8746 22.4542 23.8095 22.6104 23.8095C22.7797 23.803 22.9099 23.8616 23.027 23.9722C23.1312 24.0699 23.2288 24.174 23.3265 24.2782C23.4241 24.3888 23.5348 24.4214 23.678 24.4019C23.9969 24.3628 24.2768 24.2001 24.5763 24.1024C24.7781 24.0373 24.9733 23.9592 25.1947 23.9722C25.2272 23.9722 25.2598 23.9722 25.2858 23.9787C25.4615 24.0178 25.5136 24.148 25.3964 24.2782C25.2728 24.4149 25.1296 24.532 24.9864 24.6557C24.7585 24.851 24.5242 25.0463 24.2964 25.2416C24.2313 25.3001 24.1597 25.3457 24.1011 25.4108C24.0034 25.5084 23.9058 25.6191 23.8082 25.7233C23.5934 25.9511 23.4176 26.2115 23.2549 26.4914C23.1052 26.7452 22.9229 26.9861 22.7471 27.2269C22.5649 27.4743 22.3826 27.7151 22.1938 27.9494C21.8554 28.353 21.4583 28.7045 21.0352 29.0235C20.6772 29.2904 20.2801 29.4987 19.8895 29.7005C19.8114 29.7395 19.7268 29.7656 19.6487 29.7916C19.2581 29.9218 18.8611 30.0455 18.4705 30.1887C18.1515 30.3058 17.8912 30.4881 17.7675 30.8266C17.6438 31.1586 17.455 31.458 17.2533 31.7509C17.1686 31.8811 17.0319 31.9852 16.8952 32.0764C16.7455 32.1805 16.5633 32.1219 16.5047 31.9462C16.4526 31.7965 16.4201 31.6337 16.4005 31.4775C16.381 31.2562 16.3419 31.0479 16.2378 30.8526C16.1402 30.6638 15.9839 30.5337 15.8147 30.4165C15.5738 30.2538 15.2939 30.1887 15.014 30.1366C14.7472 30.091 14.4868 30.0194 14.2329 29.9023C14.0246 29.8046 13.8033 29.733 13.595 29.6354C13.3737 29.5247 13.1524 29.4075 12.9441 29.2774C12.4689 28.9909 12.0523 28.6329 11.6422 28.2554C11.473 28.0992 11.3298 27.9039 11.18 27.7281C11.0368 27.5589 10.8936 27.3896 10.7699 27.2074C10.5551 26.8884 10.3664 26.5564 10.1906 26.2115C10.0149 25.8599 9.89118 25.4954 9.78053 25.1179C9.72194 24.9031 9.64383 24.6883 9.60477 24.4735C9.55921 24.2326 9.53317 23.9853 9.52015 23.7379C9.50062 23.432 9.4811 23.126 9.49411 22.8266C9.52015 22.3709 9.52666 21.9088 9.68289 21.4661C9.80656 21.1211 9.88468 20.7631 10.0669 20.4377C10.2622 20.0731 10.4705 19.7151 10.7309 19.3831C11.154 18.8364 11.6487 18.3612 12.1695 17.9055C12.3712 17.7298 12.5861 17.567 12.7813 17.3913C13.0873 17.1179 13.3932 16.8445 13.6796 16.5581C13.8228 16.4149 13.914 16.2391 13.8944 16.0243C13.8879 15.9657 13.8879 15.9137 13.8944 15.8551C13.9335 15.5622 13.7968 15.3343 13.621 15.126C13.4127 14.8722 13.1849 14.6313 12.9896 14.371C12.6772 13.9478 12.2996 13.5898 11.9091 13.2579C11.6292 13.0235 11.3232 12.8282 10.9913 12.659C10.3989 12.3596 9.76751 12.288 9.12308 12.327C8.68045 12.3531 8.25734 12.4572 7.85376 12.6525C7.38509 12.8738 6.98151 13.1667 6.63651 13.5443C6.31104 13.9023 6.05718 14.3124 5.88143 14.7745C5.76426 15.1 5.64709 15.419 5.61454 15.7574C5.57549 16.0764 5.55596 16.3954 5.57549 16.7208C5.60152 17.0528 5.61454 17.3913 5.69266 17.7168C5.84888 18.3742 6.10274 18.9731 6.60396 19.4548C6.77321 19.6175 6.96198 19.7412 7.15726 19.8648C7.5348 20.1057 7.96442 20.2033 8.38753 20.3205C8.42007 20.327 8.44611 20.3335 8.47866 20.3465C8.77158 20.4246 8.84318 20.646 8.65441 20.8803C8.4396 21.1472 8.43309 21.2643 8.59582 21.5703C8.75205 21.8567 8.77809 22.1431 8.61535 22.4425C8.55677 22.5467 8.50469 22.6508 8.45913 22.7615C8.34847 23.0219 8.40054 23.2692 8.49818 23.5166C8.55026 23.6468 8.5763 23.79 8.60884 23.9267C8.62837 23.9983 8.62837 24.0764 8.66092 24.1415C8.79761 24.4539 8.79761 24.7794 8.80412 25.1114C8.80412 25.1634 8.77809 25.2546 8.74554 25.2676C8.68045 25.2871 8.58932 25.2871 8.53724 25.2481C8.42658 25.1634 8.31592 25.0593 8.24432 24.9421C7.99696 24.5451 7.71706 24.174 7.3981 23.8421C7.17679 23.6077 6.92292 23.4059 6.67557 23.2041C6.39567 22.9763 6.10274 22.768 5.82284 22.5467C5.5169 22.3058 5.21096 22.0585 4.92455 21.7981C4.66418 21.5638 4.42333 21.3034 4.18249 21.043C3.78542 20.6199 3.47297 20.1382 3.20609 19.624C3.11495 19.4548 3.03033 19.279 2.94571 19.1098C2.86109 18.9405 2.796 18.7583 2.69836 18.589C2.56166 18.3417 2.47704 18.0748 2.3794 17.8144C2.31431 17.6386 2.23619 17.4694 2.13855 17.3067C2.0995 17.2351 2.02138 17.1765 1.94327 17.1439C1.61781 16.9812 1.27281 16.8445 0.953852 16.6753C0.641403 16.5125 0.328955 16.3433 0.133675 16.0243C0.0490531 15.8811 -0.0160409 15.7379 0.00348714 15.5687C0.00999649 15.471 0.00348714 15.3669 0.00348714 15.2692C0.00999649 15.1651 0.0490529 15.1195 0.153202 15.1195C0.231315 15.1195 0.322445 15.113 0.394048 15.1456C0.830174 15.3343 1.29234 15.3278 1.74799 15.3148C1.92374 15.3083 2.06695 15.2172 2.18412 15.0935C2.34034 14.9242 2.42496 14.7225 2.49006 14.5076C2.55515 14.2863 2.62024 14.065 2.71788 13.8567C2.90015 13.4466 3.10194 13.0496 3.36882 12.6915C3.53806 12.4637 3.69429 12.2229 3.88306 12.0146C4.07183 11.7933 4.29966 11.611 4.49494 11.3962C4.6772 11.1944 4.8855 11.0382 5.10681 10.8819C5.3086 10.7387 5.51039 10.5955 5.71869 10.4588C6.08322 10.2245 6.4868 10.0618 6.89038 9.89252C7.24188 9.74931 7.61291 9.67771 7.98395 9.60611C8.23781 9.55404 8.49818 9.50847 8.75205 9.48894C9.25327 9.44338 9.75449 9.43687 10.2557 9.52149C10.7504 9.60611 11.2451 9.67771 11.7203 9.85346C12.2476 10.0487 12.7618 10.2636 13.224 10.576C13.5364 10.7908 13.8554 10.9926 14.1483 11.2269C14.3957 11.4222 14.617 11.65 14.8383 11.8714C15.1442 12.1773 15.4241 12.5093 15.678 12.8673C15.8017 13.043 15.9319 13.2188 16.062 13.388C16.3615 13.7851 16.9538 13.8242 17.2988 13.4531C17.5397 13.1928 17.8196 12.978 18.0734 12.7306C18.2557 12.5548 18.4314 12.3726 18.6007 12.1838C18.796 11.9755 18.9847 11.7607 19.1605 11.5394C19.3167 11.3441 19.4469 11.1358 19.5836 10.934C19.6552 10.8234 19.7333 10.7192 19.7919 10.602C20.0523 10.0032 20.228 9.39781 20.1955 8.75338Z" fill="white"/>
<path d="M79.1607 9.60936C78.9784 9.53775 78.7962 9.40757 78.6074 9.40106C77.3836 9.34898 76.1599 9.30993 74.9947 9.83068C74.181 10.1952 73.3153 10.3189 72.4365 10.2863C70.8613 10.2277 69.8654 8.43767 70.653 7.07071C71.1802 6.15289 71.9809 5.6712 73.0549 5.65818C74.526 5.64516 76.0037 5.72979 77.4618 5.56705C80.0134 5.28064 82.5586 5.528 85.1037 5.44337C85.9044 5.41734 86.705 5.26762 87.4992 5.27413C88.5407 5.28064 89.5887 5.34574 90.6302 5.45639C92.0492 5.60611 93.4422 5.89252 94.7896 6.4328C95.6489 6.77779 96.111 7.64353 95.1997 8.56786C94.3405 9.4271 93.3315 9.79162 92.1534 9.62888C91.2616 9.50521 90.3763 9.27087 89.4845 9.12116C88.5602 8.97144 87.6228 8.86078 86.692 8.75012C86.5228 8.7306 86.3015 8.71758 86.1843 8.80871C86.0085 8.93889 85.8263 9.14719 85.7937 9.34247C85.7742 9.45964 86.0215 9.69398 86.1908 9.73954C86.4512 9.81766 86.7441 9.77209 87.024 9.79813C87.5447 9.8502 88.072 9.86322 88.5732 9.9869C89.5626 10.2277 89.9792 10.7485 90.0769 11.7444C90.1159 12.1285 90.1355 12.5125 90.1485 12.8966C90.2005 15.5524 90.2526 18.2082 90.2917 20.864C90.3177 22.4002 89.7384 23.8128 89.2307 25.2123C88.8141 26.3579 87.382 26.8461 86.4512 26.1496C85.1558 25.1732 83.7563 25.388 82.3373 25.4922C81.9532 25.5182 81.5757 25.6419 81.1981 25.6289C80.443 25.6028 79.7465 25.7721 79.0631 26.065C78.6465 26.2407 78.2103 26.3839 77.7742 26.5076C76.6872 26.8201 76.1208 26.5792 75.6782 25.5377C75.1379 24.2684 74.9426 22.9145 74.9752 21.541C75.0142 19.9006 75.1314 18.2668 75.1575 16.6264C75.1705 15.7932 75.0858 14.9535 75.0012 14.1268C74.858 12.6818 75.8344 11.1 77.2209 10.6183C77.618 10.4816 78.0216 10.384 78.4186 10.2473C78.692 10.1496 78.9524 10.0129 79.2193 9.89577C79.1867 9.79813 79.1737 9.70049 79.1607 9.60936ZM82.6953 17.5833C83.3527 17.9543 84.0687 18.2473 84.6351 18.7094C85.5789 19.484 85.3055 20.2001 84.4528 20.7403C83.0272 21.6386 81.4585 21.5019 79.8963 21.1244C79.8637 21.1179 79.8312 21.0984 79.8051 21.0788C79.356 20.7013 78.7766 20.3693 78.7701 19.7184C78.7636 19.0609 79.2388 18.6639 79.8051 18.384C79.9939 18.2863 80.1696 18.1561 80.3519 18.039C80.098 17.9348 79.8963 17.9739 79.701 17.9869C79.4536 17.9999 79.2128 17.9804 78.9654 18.0064C78.3015 18.065 77.9369 18.4686 77.9955 19.113C78.0606 19.803 78.1583 20.493 78.2884 21.1765C78.4707 22.1594 78.5293 22.2245 79.5187 22.1919C80.7034 22.1594 81.8881 22.0422 83.0728 21.9966C83.6652 21.9771 84.2575 22.0487 84.8564 22.0552C85.6961 22.0617 85.9109 21.9901 86.0671 21.209C86.2494 20.2977 86.2494 19.3473 86.3145 18.4165C86.3535 17.8372 86.015 17.5898 85.4748 17.5833C84.5244 17.5768 83.5936 17.5833 82.6953 17.5833ZM86.3405 13.5866C86.1908 13.4759 85.9499 13.157 85.6961 13.1504C85.3316 13.1374 85.0907 13.4564 85.1102 13.8665C85.1298 14.257 85.312 14.5434 85.7156 14.5955C86.0281 14.6346 86.3666 14.1724 86.3405 13.5866ZM79.0826 13.9251C78.6465 13.8535 78.2364 13.7428 78.1908 14.3091C78.1778 14.4718 78.3796 14.7908 78.5163 14.8038C79.1086 14.8884 79.1802 14.4979 79.0826 13.9251ZM82.474 13.5866C82.4089 13.5215 82.2591 13.2351 82.0704 13.209C81.6863 13.157 81.6277 13.515 81.6798 13.7884C81.7254 14.0227 81.8686 14.4002 82.0183 14.4198C82.4414 14.4914 82.487 14.1334 82.474 13.5866ZM82.9882 9.33596C82.6497 9.10814 82.4024 8.84776 82.3112 8.89333C82.0769 9.01701 81.9076 9.27738 81.7124 9.47917C81.8881 9.60285 82.0834 9.83718 82.2396 9.81766C82.4544 9.79162 82.6432 9.5703 82.9882 9.33596Z" fill="white"/>
<path d="M175.61 19.9009C174.998 19.8163 174.529 19.7512 173.93 19.6666C173.872 20.5454 173.8 21.333 173.78 22.1206C173.767 22.9603 173.826 23.8 173.819 24.6397C173.813 25.0563 173.78 25.4794 173.676 25.883C173.474 26.6381 173.116 26.8985 172.42 26.8985C171.854 26.8985 171.255 26.4884 171.092 25.9091C170.981 25.512 170.942 25.0824 170.91 24.6658C170.825 23.6243 170.767 22.5763 170.675 21.5348C170.656 21.346 170.545 21.1637 170.454 20.9164C169.725 21.3395 169.374 21.9839 169.029 22.6088C168.488 23.5917 167.694 24.3012 166.783 24.9066C166.64 25.0043 166.483 25.1279 166.321 25.141C166.06 25.167 165.696 25.206 165.546 25.0628C165.396 24.9196 165.338 24.5095 165.435 24.3078C165.793 23.5527 166.151 22.7781 166.659 22.1271C167.942 20.4933 168.983 18.7162 169.979 16.9131C170.077 16.7309 170.161 16.5356 170.22 16.3338C170.252 16.2101 170.226 16.0669 170.226 15.8391C169.693 15.8391 169.185 15.8391 168.684 15.8391C168.234 15.8391 167.772 15.8782 167.336 15.8131C166.77 15.7219 166.204 15.5136 166.106 14.8497C165.995 14.1011 166.067 13.359 166.757 12.8643C167.577 12.2785 168.501 11.9921 169.504 11.9791C170.064 11.9725 170.63 12.0051 171.183 11.9725C171.945 11.927 172.706 11.8424 173.468 11.7708C174.34 11.6861 175.206 11.5885 176.052 11.953C176.788 12.272 177.029 12.7406 176.638 13.4371C176.332 13.9774 175.909 14.4591 175.492 14.9278C174.894 15.5983 174.913 15.9172 175.642 16.4249C175.929 16.6267 176.182 16.8676 176.475 17.0563C177.1 17.4664 177.465 18.0262 177.471 18.8074C178.591 19.0938 179.587 18.7813 180.576 18.4428C180.967 18.3061 181.208 17.5055 181.071 17.0759C180.928 16.6202 180.589 16.438 179.997 16.5031C179.684 16.5356 179.372 16.5942 179.06 16.6007C178.226 16.6137 177.816 16.3013 177.608 15.5332C177.387 14.7065 177.556 14.0881 178.239 13.7626C178.955 13.4241 179.723 13.1572 180.485 12.9555C181.201 12.7667 181.37 12.6821 181.403 11.94C181.429 11.3476 181.448 10.7358 181.325 10.1629C181.136 9.25815 181.611 8.70485 182.19 8.1776C182.366 8.01486 182.594 7.89769 182.809 7.78704C183.811 7.26629 184.391 7.47459 184.762 8.5291C185.022 9.28419 185.191 10.0718 184.95 10.879C184.872 11.1459 184.801 11.4258 184.788 11.6992C184.742 12.4998 185.042 12.7927 185.836 12.7472C186.148 12.7276 186.461 12.669 186.767 12.6105C187.906 12.3891 189.253 13.665 188.967 15.1426C188.85 15.748 188.413 16.0539 187.899 16.1776C187.125 16.3598 186.324 16.4314 185.53 16.5356C185.256 16.5747 184.976 16.5877 184.645 16.6137C184.547 16.9196 184.417 17.2061 184.378 17.5055C184.306 18.1629 184.586 18.4689 185.263 18.4949C187.183 18.573 189.103 18.6251 191.024 18.7162C192.241 18.7683 193.12 19.4323 193.758 20.4087C194.155 21.014 194.051 21.5087 193.543 22.01C192.592 22.9538 191.427 23.0254 190.223 22.726C188.485 22.2899 186.734 21.9774 184.937 22.0946C183.863 22.1662 182.802 22.4396 181.735 22.4786C180.257 22.5307 178.819 22.7716 177.406 23.1816C176.827 23.3509 176.247 23.5462 175.753 22.9929C175.18 22.3484 174.913 21.6259 175.219 20.7732C175.304 20.5323 175.421 20.3175 175.61 19.9009Z" fill="white"/>
<path d="M106.747 12.6167C106.311 12.7469 106.025 12.838 105.725 12.9162C104.86 13.157 103.955 12.7209 103.662 11.9267C103.317 10.9699 103.688 10.026 104.599 9.6745C105.745 9.23837 106.943 8.99102 108.173 8.99753C108.453 8.99753 108.733 9.01706 109.013 8.978C110.171 8.82828 110.21 8.73715 110.275 7.57198C110.327 6.64115 110.803 5.83399 111.388 5.1505C111.935 4.5191 113.022 4.68834 113.458 5.44993C113.764 5.9837 113.973 6.59558 114.109 7.19444C114.435 8.60046 114.624 8.78272 116.095 8.6981C116.615 8.66555 117.136 8.60697 117.65 8.54187C118.536 8.42471 119.323 8.71763 120.046 9.15375C121.146 9.81771 121.107 11.087 120.013 11.751C119.317 12.1741 118.555 12.2001 117.781 12.1546C116.381 12.0699 116.27 12.109 115.698 13.3783C114.747 15.4743 114.851 15.5655 116.375 17.004C118.529 19.0219 120.951 20.6753 123.593 21.9902C124.283 22.3352 124.973 22.6802 125.605 23.1163C126.653 23.8388 126.49 25.1472 125.325 25.694C125.227 25.7396 125.136 25.7982 125.039 25.8177C123.372 26.1106 121.706 26.1301 120.046 25.7786C119.773 25.72 119.46 25.4857 119.304 25.2449C118.021 23.266 116.186 21.7624 114.767 19.9072C114.539 19.6078 114.233 19.3539 113.94 19.1131C113.198 18.5077 112.814 18.5402 112.189 19.3148C110.998 20.7925 109.657 22.1139 108.101 23.2009C106.624 24.2359 105.009 24.965 103.154 25.0105C102.913 25.017 102.653 25.0105 102.432 24.9324C101.872 24.7371 101.266 24.5614 101.221 23.8063C101.175 23.0447 101.247 22.3222 102.015 21.8991C102.757 21.4955 103.519 21.157 104.404 21.2286C105.283 21.3002 106.057 21.0203 106.747 20.48C107.717 19.7314 108.707 19.0154 109.657 18.2473C110.093 17.8958 110.471 17.4206 110.353 16.8087C110.236 16.2034 109.781 15.8779 109.175 15.7542C108.798 15.6761 108.433 15.572 108.056 15.4808C106.877 15.214 106.148 14.5109 106.656 13.3262C106.728 13.17 106.708 12.9812 106.747 12.6167ZM110.549 12.4149C110.926 13.2612 111.499 13.4434 112.072 13.5476C112.443 13.6192 112.814 13.2351 112.847 12.8446C112.892 12.3759 112.56 12.1936 112.202 12.2001C111.701 12.2066 111.2 12.3303 110.549 12.4149Z" fill="white"/>
<path d="M57.0484 20.6427C58.9817 20.4864 60.6155 20.3237 62.2493 20.2391C62.9328 20.2 63.6488 20.2261 64.3193 20.3758C65.3738 20.6166 65.7969 21.5084 65.2957 22.4718C64.5536 23.9038 63.4601 25.0039 61.9369 25.6223C61.8393 25.6614 61.7221 25.6483 61.6375 25.7004C60.4007 26.4881 59.1118 26.3123 57.8035 25.9152C56.5732 25.5442 55.3234 25.2187 54.0931 24.8477C52.8303 24.4636 51.574 24.047 50.3177 23.6565C49.6863 23.4612 49.0549 23.2529 48.4105 23.0902C45.8848 22.4523 44.3682 20.161 44.8889 17.6288C45.1493 16.3725 45.5464 15.1357 45.8848 13.8925C45.9369 13.6907 46.002 13.4889 46.0411 13.2806C46.1713 12.6492 45.9174 12.3497 45.286 12.3888C45.0777 12.4018 44.8824 12.4864 44.6741 12.5255C43.6586 12.6947 42.8124 12.3367 42.3177 11.5296C41.9597 10.9372 42.0574 9.85016 42.5976 9.1797C43.3983 8.19028 44.3877 7.53934 45.7221 7.50029C47.2778 7.45472 48.7815 7.74764 50.2656 8.12518C51.7042 8.49622 52.1403 10.0194 51.1704 11.1716C50.3307 12.1675 49.5561 13.196 49.1265 14.4392C48.8857 15.1292 48.6839 15.8322 48.5276 16.5483C48.2998 17.5898 49.3543 18.7419 50.3177 19.1065C51.229 19.4514 52.1729 19.7379 53.1232 19.9396C54.5097 20.2521 55.9223 20.4474 57.0484 20.6427Z" fill="white"/>
<path d="M153.745 23.5852C152.95 23.3378 152.143 23.1295 151.369 22.8301C150.23 22.394 149.11 21.9123 147.997 21.4176C146.402 20.7146 144.99 19.7707 144.241 18.1173C144.085 17.7789 144.02 17.3818 143.994 17.0042C143.883 15.2272 143.889 13.4371 143.662 11.6731C143.531 10.6576 143.883 9.90254 144.365 9.14095C145.094 7.9888 145.927 7.9237 146.877 8.93265C147.118 9.18652 147.313 9.47944 147.496 9.77887C147.782 10.241 148.173 10.4428 148.719 10.4363C149.631 10.4233 150.535 10.4623 151.447 10.4689C152.566 10.4754 153.452 11.1198 153.614 12.0571C153.758 12.8643 153.471 13.4371 152.671 13.678C151.876 13.9188 151.043 14.036 150.223 14.2117C149.442 14.3745 148.622 14.4396 147.893 14.726C146.981 15.084 146.89 15.7414 147.587 16.4444C148.029 16.8871 148.524 17.2972 149.058 17.6161C150.223 18.3126 151.375 18.944 152.859 18.8789C154.2 18.8203 155.561 19.1263 156.915 19.2955C157.221 19.3346 157.527 19.4583 157.793 19.6145C158.633 20.0832 158.744 20.9164 158.067 21.6194C156.902 22.8366 155.502 23.5266 153.745 23.5852Z" fill="white"/>
<path d="M139.437 7.58496C140.322 7.68911 141.077 8.02109 141.514 8.82825C141.95 9.64191 141.631 10.3775 141.162 11.074C141.123 11.1326 141.077 11.1976 141.019 11.2237C139.222 12.1285 139.45 13.886 139.385 15.4222C139.281 17.9609 139.359 20.4995 139.678 23.0316C139.769 23.7412 139.619 24.4962 139.47 25.2058C139.398 25.5508 139.105 25.8827 138.838 26.1366C138.396 26.5597 137.927 26.5076 137.445 26.0975C136.977 25.707 136.807 25.1927 136.775 24.6199C136.651 22.2505 136.553 19.8811 136.404 17.5182C136.332 16.4442 136.195 15.3701 136.013 14.3156C135.863 13.4434 135.792 13.4629 134.92 13.3653C134.477 13.3132 134.021 13.2221 133.611 13.0463C132.791 12.6948 132.27 11.8486 132.361 11.0479C132.466 10.1366 132.771 9.38805 133.813 9.10815C135.089 8.76966 136.332 8.28797 137.601 7.91694C138.2 7.74119 138.832 7.68911 139.437 7.58496Z" fill="white"/>
<path d="M172.648 7.35047C173.605 7.27886 174.418 7.53273 175.167 8.2813C175.811 8.92573 175.668 10.0844 174.9 10.3968C173.39 11.0022 171.815 11.3147 170.2 10.859C169.458 10.6507 169.107 10.0128 169.159 9.22516C169.211 8.45705 169.875 7.68244 170.643 7.51971C171.014 7.4416 171.398 7.38952 171.782 7.35047C172.062 7.33094 172.342 7.35047 172.648 7.35047Z" fill="white"/>
</svg>
