<svg width="31" height="31" viewBox="0 0 31 31" fill="none" xmlns="http://www.w3.org/2000/svg">
<path d="M9.10913 0.65C7.46786 0.71875 6.3504 0.976562 5.37263 1.35469C4.37739 1.75 3.52183 2.26562 2.66628 3.10781C1.81072 3.95 1.28691 4.79219 0.902784 5.78906C0.518657 6.75156 0.274213 7.85156 0.186911 9.46719C0.11707 11.0828 0.0996094 11.5984 0.0996094 15.7062C0.11707 19.8141 0.13453 20.3297 0.204371 21.9453C0.274213 23.5609 0.536117 24.6609 0.920244 25.6063C1.32183 26.6031 1.84564 27.4453 2.7012 28.2875C3.55675 29.1297 4.41231 29.6453 5.42501 30.0234C6.40278 30.4016 7.52024 30.6422 9.16151 30.7281C10.8028 30.7969 11.3266 30.8141 15.4996 30.8141C19.6726 30.7969 20.1964 30.7969 21.8377 30.7109C23.479 30.6422 24.5964 30.3844 25.5742 30.0062C26.5869 29.6109 27.4425 29.0953 28.298 28.2531C29.1536 27.4109 29.6774 26.5688 30.0615 25.5719C30.4456 24.6094 30.6901 23.5094 30.7774 21.8937C30.8472 20.2781 30.8647 19.7625 30.8647 15.6547C30.8472 11.5469 30.8472 11.0312 30.7599 9.41562C30.6901 7.8 30.4282 6.7 30.0441 5.7375C29.6425 4.74063 29.1187 3.89844 28.2631 3.05625C27.4075 2.21406 26.552 1.69844 25.5393 1.32031C24.5615 0.942187 23.4441 0.701562 21.8028 0.615625C20.1441 0.564062 19.6202 0.546875 15.4472 0.546875C11.2742 0.564063 10.7504 0.58125 9.10913 0.65ZM9.28374 27.9953C7.78215 27.9266 6.97897 27.6859 6.4377 27.4797C5.72183 27.2047 5.21548 26.8781 4.67421 26.3453C4.13294 25.8125 3.8012 25.3141 3.52183 24.6094C3.31231 24.0766 3.0504 23.2687 2.98056 21.8078C2.91072 20.2094 2.89326 19.7281 2.8758 15.6891C2.8758 11.65 2.8758 11.1688 2.94564 9.57031C3.01548 8.09219 3.25993 7.30156 3.46945 6.76875C3.74882 6.06406 4.08056 5.56562 4.62183 5.03281C5.1631 4.5 5.66945 4.17344 6.38532 3.89844C6.92659 3.69219 7.74723 3.45156 9.23136 3.36562C10.8552 3.29687 11.3441 3.27969 15.4298 3.2625C19.5329 3.2625 20.0218 3.2625 21.6456 3.33125C23.1472 3.4 23.9504 3.64063 24.4917 3.84688C25.2075 4.12188 25.7314 4.44844 26.2552 4.98125C26.7964 5.51406 27.1282 6.0125 27.4075 6.71719C27.6171 7.25 27.8615 8.05781 27.9488 9.51875C28.0187 11.1172 28.0361 11.5984 28.0536 15.6203C28.071 19.6594 28.0536 20.1406 27.9837 21.7391C27.9139 23.2172 27.6695 24.0078 27.4599 24.5578C27.1806 25.2625 26.8488 25.7609 26.3075 26.2938C25.7663 26.8266 25.2599 27.1531 24.5441 27.4281C24.0028 27.6344 23.1821 27.875 21.698 27.9609C20.0742 28.0297 19.5853 28.0469 15.4821 28.0641C11.3964 28.0813 10.9075 28.0641 9.28374 27.9953ZM21.8202 7.59375C21.8202 8.59063 22.6583 9.39844 23.671 9.39844C24.6837 9.39844 25.5218 8.57344 25.5044 7.57656C25.5044 6.57969 24.6663 5.77188 23.6536 5.77188C22.6409 5.77188 21.8202 6.59687 21.8202 7.59375ZM7.59009 15.6891C7.59009 19.9859 11.1345 23.4406 15.4996 23.4406C19.8472 23.4234 23.3742 19.9516 23.3742 15.6547C23.3568 11.375 19.8298 7.88594 15.4647 7.90312C11.0996 7.92031 7.57263 11.4094 7.59009 15.6891ZM10.3488 15.6891C10.3488 12.9047 12.6361 10.6531 15.4647 10.6359C18.2933 10.6359 20.598 12.8875 20.598 15.6719C20.598 18.4563 18.3107 20.725 15.4821 20.725C12.6536 20.725 10.3663 18.4734 10.3488 15.6891Z" fill="white" fill-opacity="0.8"/>
</svg>
