<svg width="25" height="25" viewBox="0 0 25 25" fill="none" xmlns="http://www.w3.org/2000/svg">
<path d="M14.6878 0.833008H8.85449V6.66634H14.6878V0.833008Z" fill="white" fill-opacity="0.8"/>
<path d="M5.93783 18.333H0.104492V24.1663H5.93783V18.333Z" fill="white" fill-opacity="0.8"/>
<path d="M5.93783 9.58301H0.104492V15.4163H5.93783V9.58301Z" fill="white" fill-opacity="0.8"/>
<path d="M5.93783 0.833008H0.104492V6.66634H5.93783V0.833008Z" fill="white" fill-opacity="0.8"/>
<path d="M23.4378 0.833008H17.6045V6.66634H23.4378V0.833008Z" fill="white" fill-opacity="0.8"/>
<path d="M10.3128 21.0455V24.1663H13.3753L22.0962 15.4601L19.0045 12.3684L10.3128 21.0455Z" fill="white" fill-opacity="0.8"/>
<path d="M14.6878 12.5434V9.58301H8.85449V15.4163H11.8149L14.6878 12.5434Z" fill="white" fill-opacity="0.8"/>
<path d="M24.6774 11.858L22.6212 9.80176C22.3295 9.51009 21.8774 9.51009 21.5857 9.80176L20.0399 11.3476L23.1316 14.4393L24.6774 12.8934C24.9691 12.6018 24.9691 12.1497 24.6774 11.858Z" fill="white" fill-opacity="0.8"/>
</svg>
