<svg width="112" height="38" viewBox="0 0 112 38" fill="none" xmlns="http://www.w3.org/2000/svg">
<path d="M89.167 9.07464C89.167 9.39033 89.2129 9.71749 89.3392 10.0274C89.896 11.405 91.3137 12.2545 93.116 11.537C93.5465 11.3648 105.468 6.56063 105.468 6.56063C105.468 6.56063 100.773 18.4649 100.595 18.9068C99.9118 20.6116 100.733 22.1555 102.127 22.6721C102.437 22.7869 102.759 22.8386 103.074 22.8386C104.217 22.8328 105.221 22.1613 105.715 20.8182C105.789 20.6173 111.661 4.49431 111.787 4.10975C111.862 3.88016 112 3.34062 112 2.96754C112.006 2.16971 111.707 1.4178 111.139 0.849567C110.571 0.287071 109.83 -0.00565695 109.044 8.28105e-05C108.659 8.28105e-05 108.349 0.06896 107.879 0.218194C107.597 0.31003 92.4616 5.94073 91.1702 6.42287C89.8788 6.90501 89.1613 7.93243 89.167 9.07464Z" fill="#ED1C24"/>
<path d="M60.807 18.1662V17.8218H51.6291V20.1693H56.9613C55.5723 24.566 50.6074 27.1489 50.6074 27.1489L51.9333 29.0028C51.9333 29.0028 60.807 25.3409 60.807 18.1662Z" fill="#454B52"/>
<path d="M57.9083 33.7502V29.1929H54.6538V34.3357C54.6538 35.9428 55.9338 37.1023 57.6901 37.1023H67.7749V34.7604H59.0505C58.2584 34.7604 57.9255 34.4448 57.9083 33.7502Z" fill="#454B52"/>
<path d="M60.4395 22.1439V24.4972H64.308V30.1509H67.5625V17.5693H64.308V22.1439H60.4395Z" fill="#454B52"/>
<path d="M88.4839 27.0055H91.7383V17.4775H88.4839V20.445H85.0859V22.7639H88.4839V27.0055Z" fill="#454B52"/>
<path d="M15.4859 29.0146H3.09375V34.3354C3.09375 35.9425 4.37372 37.102 6.13008 37.102H16.2034V29.7379C16.2034 29.3361 15.8819 29.0146 15.4859 29.0146ZM12.9547 34.7544H7.4904C6.69832 34.7601 6.35967 34.4445 6.34819 33.7499V31.3622H12.9547V34.7544Z" fill="#454B52"/>
<path d="M16.4272 17.8503V17.7412H2.92154V20.0888H13.0235C13.0235 20.2437 13.0235 20.4389 13.0235 20.6283C13.0235 22.8094 12.9145 24.2444 12.8571 24.8298H0V27.1774H19.8079V24.8298H15.7556C15.945 24.0894 16.4272 21.8222 16.4272 17.8503Z" fill="#454B52"/>
<path d="M36.6485 30.1912C39.3519 29.6 41.3493 27.5739 41.3493 25.1747C41.3493 23.8832 40.7696 22.7008 39.8168 21.7882H43.2722V19.4406H36.6485V17.2251H33.3998V19.4406H26.7761V21.7882H30.2314C29.2786 22.7008 28.6989 23.8775 28.6989 25.1747C28.6989 27.5796 30.6964 29.6 33.4055 30.1912V32.5675H25.123V34.915H44.9252V32.5675H36.6485V30.1912ZM32.0452 25.1C32.0452 23.4987 33.3826 22.19 35.0241 22.19C36.6657 22.19 38.0031 23.4929 38.0031 25.1C38.0031 26.7072 36.6657 28.0101 35.0241 28.0101C33.3826 28.0101 32.0452 26.7072 32.0452 25.1Z" fill="#454B52"/>
<path d="M82.2623 26.7989H85.4134C85.2814 26.0355 84.1277 19.871 81.1258 17.7358H77.4925L74.6973 26.8735H77.9632L79.8229 20.2958C81.3956 22.1325 82.159 26.202 82.2623 26.7989Z" fill="#454B52"/>
<path d="M82.9106 34.8406C82.0841 34.8406 81.9348 34.6282 81.9348 33.928V33.6352H91.7441V28.6991C91.7441 28.2743 91.4341 27.9414 90.9922 27.9414H78.7378V30.2029H88.6274V31.414H78.8181V34.3355C78.8181 36.0287 80.035 37.1021 81.8545 37.1021H91.9507V34.8406H82.9106Z" fill="#454B52"/>
</svg>
