<svg width="40" height="40" viewBox="0 0 40 40" fill="none" xmlns="http://www.w3.org/2000/svg">
<path d="M19.001 19.9103L17.2862 0.205261C14.1737 1.32973 11.9358 4.40865 11.9358 8.03195C11.9358 8.90654 12.073 9.74543 12.3131 10.5397C11.0098 9.56694 9.41494 8.99578 7.6915 8.99578C4.99917 8.99578 2.62408 10.388 1.18359 12.512L19.001 19.9103Z" fill="#00AE4D"/>
<path d="M18.5034 21.7398L0 17.2241C0.0428716 20.651 2.14358 23.8281 5.45327 24.9704C6.25068 25.2471 7.06524 25.372 7.86265 25.3899C6.56793 26.3716 5.54759 27.7638 4.99883 29.4683C4.14997 32.1278 4.673 34.9122 6.15636 37.0005L18.5034 21.7398Z" fill="#00AE4D"/>
<path d="M20.0386 22.659L10.2725 39.6332C13.4278 40.6327 16.969 39.5172 19.0268 36.59C19.5242 35.8849 19.8843 35.1174 20.1415 34.3321C20.6474 35.9117 21.6077 37.3575 23.0053 38.4105C25.1746 40.0615 27.8841 40.3917 30.2506 39.5618L20.0386 22.659Z" fill="#00AE4D"/>
<path d="M20.8867 19.9103L38.3783 12.155C36.3891 9.41522 32.8908 8.14796 29.5811 9.26351C28.7837 9.53124 28.0549 9.92391 27.4032 10.4148C27.8919 8.82621 27.9262 7.06811 27.3946 5.36355C26.5715 2.70409 24.5651 0.776421 22.1814 0L20.8867 19.9103Z" fill="#00AE4D"/>
<path d="M21.4102 21.5971L33.9115 36.5008C35.7979 33.6896 35.8665 29.8253 33.8258 26.8981C33.3285 26.1931 32.7454 25.5952 32.1023 25.0954C33.7057 25.0865 35.3177 24.5689 36.7153 23.5158C38.8932 21.8737 40.0336 19.2946 39.9993 16.6976L21.4102 21.5971Z" fill="#00AE4D"/>
</svg>
